<mxfile host="app.diagrams.net" modified="2024-01-15T18:23:46.755Z" agent="Mozilla/5.0 (Windows NT 10.0; Win64; x64) AppleWebKit/537.36 (KHTML, like Gecko) Chrome/120.0.0.0 Safari/537.36" etag="GuNplcI1kLIsYBCEKsFR" version="22.1.18" type="google">
  <diagram name="PÃ¡gina-1" id="Mc52H5SIVAMOd5dvmG1c">
    <mxGraphModel grid="1" page="1" gridSize="10" guides="1" tooltips="1" connect="1" arrows="1" fold="1" pageScale="1" pageWidth="827" pageHeight="1169" math="0" shadow="0">
      <root>
        <mxCell id="0" />
        <mxCell id="1" parent="0" />
        <mxCell id="Du2Xm257BWrJ-h_zjdQK-1" value="&lt;b&gt;&lt;br&gt;&lt;/b&gt;" style="rounded=0;whiteSpace=wrap;html=1;fillColor=#ffe6cc;strokeColor=#d79b00;" vertex="1" parent="1">
          <mxGeometry x="1450" y="330" width="120" height="60" as="geometry" />
        </mxCell>
        <mxCell id="Du2Xm257BWrJ-h_zjdQK-2" value="" style="rounded=0;whiteSpace=wrap;html=1;fillColor=#d5e8d4;strokeColor=#82b366;" vertex="1" parent="1">
          <mxGeometry x="730" y="620" width="120" height="60" as="geometry" />
        </mxCell>
        <mxCell id="Du2Xm257BWrJ-h_zjdQK-3" value="" style="rounded=0;whiteSpace=wrap;html=1;fillColor=#fff2cc;strokeColor=#d6b656;" vertex="1" parent="1">
          <mxGeometry x="-313" y="504" width="120" height="60" as="geometry" />
        </mxCell>
        <mxCell id="Du2Xm257BWrJ-h_zjdQK-4" value="" style="rounded=0;whiteSpace=wrap;html=1;dashed=1;dashPattern=8 8;" vertex="1" parent="1">
          <mxGeometry x="-240" y="290" width="1040" height="100" as="geometry" />
        </mxCell>
        <mxCell id="Du2Xm257BWrJ-h_zjdQK-5" value="" style="rounded=0;whiteSpace=wrap;html=1;dashed=1;dashPattern=8 8;" vertex="1" parent="1">
          <mxGeometry x="-240" y="285" width="1580" height="105" as="geometry" />
        </mxCell>
        <mxCell id="Du2Xm257BWrJ-h_zjdQK-6" style="edgeStyle=orthogonalEdgeStyle;rounded=0;orthogonalLoop=1;jettySize=auto;html=1;exitX=0.5;exitY=1;exitDx=0;exitDy=0;entryX=0.5;entryY=0;entryDx=0;entryDy=0;" edge="1" parent="1" source="Du2Xm257BWrJ-h_zjdQK-15" target="Du2Xm257BWrJ-h_zjdQK-16">
          <mxGeometry relative="1" as="geometry" />
        </mxCell>
        <mxCell id="Du2Xm257BWrJ-h_zjdQK-7" style="edgeStyle=orthogonalEdgeStyle;rounded=0;orthogonalLoop=1;jettySize=auto;html=1;exitX=0.5;exitY=1;exitDx=0;exitDy=0;entryX=0.5;entryY=0;entryDx=0;entryDy=0;" edge="1" parent="1" source="Du2Xm257BWrJ-h_zjdQK-15" target="Du2Xm257BWrJ-h_zjdQK-21">
          <mxGeometry relative="1" as="geometry">
            <Array as="points">
              <mxPoint x="610" y="240" />
              <mxPoint x="-130" y="240" />
            </Array>
          </mxGeometry>
        </mxCell>
        <mxCell id="Du2Xm257BWrJ-h_zjdQK-8" style="edgeStyle=orthogonalEdgeStyle;rounded=0;orthogonalLoop=1;jettySize=auto;html=1;exitX=0.5;exitY=1;exitDx=0;exitDy=0;" edge="1" parent="1" source="Du2Xm257BWrJ-h_zjdQK-15" target="Du2Xm257BWrJ-h_zjdQK-24">
          <mxGeometry relative="1" as="geometry" />
        </mxCell>
        <mxCell id="Du2Xm257BWrJ-h_zjdQK-9" style="edgeStyle=orthogonalEdgeStyle;rounded=0;orthogonalLoop=1;jettySize=auto;html=1;exitX=0.5;exitY=1;exitDx=0;exitDy=0;" edge="1" parent="1" source="Du2Xm257BWrJ-h_zjdQK-15" target="Du2Xm257BWrJ-h_zjdQK-27">
          <mxGeometry relative="1" as="geometry" />
        </mxCell>
        <mxCell id="Du2Xm257BWrJ-h_zjdQK-10" style="edgeStyle=orthogonalEdgeStyle;rounded=0;orthogonalLoop=1;jettySize=auto;html=1;exitX=0.5;exitY=1;exitDx=0;exitDy=0;" edge="1" parent="1" source="Du2Xm257BWrJ-h_zjdQK-15">
          <mxGeometry relative="1" as="geometry">
            <mxPoint x="1220" y="310" as="targetPoint" />
          </mxGeometry>
        </mxCell>
        <mxCell id="Du2Xm257BWrJ-h_zjdQK-11" style="edgeStyle=orthogonalEdgeStyle;rounded=0;orthogonalLoop=1;jettySize=auto;html=1;exitX=0.5;exitY=1;exitDx=0;exitDy=0;entryX=0.5;entryY=0;entryDx=0;entryDy=0;" edge="1" parent="1" source="Du2Xm257BWrJ-h_zjdQK-15" target="Du2Xm257BWrJ-h_zjdQK-36">
          <mxGeometry relative="1" as="geometry" />
        </mxCell>
        <mxCell id="Du2Xm257BWrJ-h_zjdQK-12" style="edgeStyle=orthogonalEdgeStyle;rounded=0;orthogonalLoop=1;jettySize=auto;html=1;exitX=1;exitY=0.5;exitDx=0;exitDy=0;" edge="1" parent="1" source="Du2Xm257BWrJ-h_zjdQK-15" target="Du2Xm257BWrJ-h_zjdQK-71">
          <mxGeometry relative="1" as="geometry" />
        </mxCell>
        <mxCell id="Du2Xm257BWrJ-h_zjdQK-13" style="edgeStyle=orthogonalEdgeStyle;rounded=0;orthogonalLoop=1;jettySize=auto;html=1;exitX=1;exitY=0.5;exitDx=0;exitDy=0;" edge="1" parent="1" source="Du2Xm257BWrJ-h_zjdQK-15" target="Du2Xm257BWrJ-h_zjdQK-74">
          <mxGeometry relative="1" as="geometry" />
        </mxCell>
        <mxCell id="Du2Xm257BWrJ-h_zjdQK-14" style="edgeStyle=orthogonalEdgeStyle;rounded=0;orthogonalLoop=1;jettySize=auto;html=1;exitX=1;exitY=0.5;exitDx=0;exitDy=0;" edge="1" parent="1" source="Du2Xm257BWrJ-h_zjdQK-15" target="Du2Xm257BWrJ-h_zjdQK-81">
          <mxGeometry relative="1" as="geometry">
            <mxPoint x="2151.199951171875" y="310" as="targetPoint" />
            <Array as="points">
              <mxPoint x="2000" y="140" />
            </Array>
          </mxGeometry>
        </mxCell>
        <mxCell id="Du2Xm257BWrJ-h_zjdQK-15" value="&lt;b&gt;Home&lt;/b&gt;" style="rounded=0;whiteSpace=wrap;html=1;fillColor=#f8cecc;strokeColor=#b85450;" vertex="1" parent="1">
          <mxGeometry x="550" y="110" width="120" height="60" as="geometry" />
        </mxCell>
        <mxCell id="Du2Xm257BWrJ-h_zjdQK-16" value="&lt;b&gt;Buscador&lt;/b&gt;" style="rounded=0;whiteSpace=wrap;html=1;fillColor=#ffe6cc;strokeColor=#d79b00;" vertex="1" parent="1">
          <mxGeometry x="900" y="310" width="120" height="60" as="geometry" />
        </mxCell>
        <mxCell id="Du2Xm257BWrJ-h_zjdQK-17" style="edgeStyle=orthogonalEdgeStyle;rounded=0;orthogonalLoop=1;jettySize=auto;html=1;exitX=0.5;exitY=1;exitDx=0;exitDy=0;entryX=0.5;entryY=0;entryDx=0;entryDy=0;" edge="1" parent="1" source="Du2Xm257BWrJ-h_zjdQK-21" target="Du2Xm257BWrJ-h_zjdQK-40">
          <mxGeometry relative="1" as="geometry" />
        </mxCell>
        <mxCell id="Du2Xm257BWrJ-h_zjdQK-18" style="edgeStyle=orthogonalEdgeStyle;rounded=0;orthogonalLoop=1;jettySize=auto;html=1;exitX=0.5;exitY=1;exitDx=0;exitDy=0;entryX=0.5;entryY=0;entryDx=0;entryDy=0;" edge="1" parent="1" source="Du2Xm257BWrJ-h_zjdQK-21" target="Du2Xm257BWrJ-h_zjdQK-43">
          <mxGeometry relative="1" as="geometry" />
        </mxCell>
        <mxCell id="Du2Xm257BWrJ-h_zjdQK-19" style="edgeStyle=orthogonalEdgeStyle;rounded=0;orthogonalLoop=1;jettySize=auto;html=1;exitX=0.5;exitY=1;exitDx=0;exitDy=0;" edge="1" parent="1" source="Du2Xm257BWrJ-h_zjdQK-21" target="Du2Xm257BWrJ-h_zjdQK-67">
          <mxGeometry relative="1" as="geometry" />
        </mxCell>
        <mxCell id="Du2Xm257BWrJ-h_zjdQK-20" style="edgeStyle=orthogonalEdgeStyle;rounded=0;orthogonalLoop=1;jettySize=auto;html=1;exitX=0.5;exitY=1;exitDx=0;exitDy=0;" edge="1" parent="1" source="Du2Xm257BWrJ-h_zjdQK-21">
          <mxGeometry relative="1" as="geometry">
            <mxPoint x="-646.8571254185268" y="490" as="targetPoint" />
          </mxGeometry>
        </mxCell>
        <mxCell id="Du2Xm257BWrJ-h_zjdQK-21" value="&lt;b&gt;Construir mi PC&lt;/b&gt;" style="rounded=0;whiteSpace=wrap;html=1;fillColor=#ffe6cc;strokeColor=#d79b00;" vertex="1" parent="1">
          <mxGeometry x="-190" y="310" width="120" height="60" as="geometry" />
        </mxCell>
        <mxCell id="Du2Xm257BWrJ-h_zjdQK-22" style="edgeStyle=orthogonalEdgeStyle;rounded=0;orthogonalLoop=1;jettySize=auto;html=1;exitX=0.5;exitY=1;exitDx=0;exitDy=0;entryX=0.5;entryY=0;entryDx=0;entryDy=0;" edge="1" parent="1" source="Du2Xm257BWrJ-h_zjdQK-24" target="Du2Xm257BWrJ-h_zjdQK-52">
          <mxGeometry relative="1" as="geometry" />
        </mxCell>
        <mxCell id="Du2Xm257BWrJ-h_zjdQK-23" style="edgeStyle=orthogonalEdgeStyle;rounded=0;orthogonalLoop=1;jettySize=auto;html=1;exitX=0.5;exitY=1;exitDx=0;exitDy=0;" edge="1" parent="1" source="Du2Xm257BWrJ-h_zjdQK-24" target="Du2Xm257BWrJ-h_zjdQK-53">
          <mxGeometry relative="1" as="geometry" />
        </mxCell>
        <mxCell id="Du2Xm257BWrJ-h_zjdQK-24" value="&lt;b&gt;Seminarios&lt;/b&gt;" style="rounded=0;whiteSpace=wrap;html=1;fillColor=#ffe6cc;strokeColor=#d79b00;" vertex="1" parent="1">
          <mxGeometry x="320" y="310" width="120" height="60" as="geometry" />
        </mxCell>
        <mxCell id="Du2Xm257BWrJ-h_zjdQK-25" style="edgeStyle=orthogonalEdgeStyle;rounded=0;orthogonalLoop=1;jettySize=auto;html=1;exitX=0.5;exitY=1;exitDx=0;exitDy=0;" edge="1" parent="1" source="Du2Xm257BWrJ-h_zjdQK-27" target="Du2Xm257BWrJ-h_zjdQK-59">
          <mxGeometry relative="1" as="geometry">
            <Array as="points">
              <mxPoint x="690" y="420" />
              <mxPoint x="677" y="420" />
            </Array>
          </mxGeometry>
        </mxCell>
        <mxCell id="Du2Xm257BWrJ-h_zjdQK-26" style="edgeStyle=orthogonalEdgeStyle;rounded=0;orthogonalLoop=1;jettySize=auto;html=1;exitX=0.5;exitY=1;exitDx=0;exitDy=0;entryX=0.5;entryY=0;entryDx=0;entryDy=0;" edge="1" parent="1" source="Du2Xm257BWrJ-h_zjdQK-27" target="Du2Xm257BWrJ-h_zjdQK-60">
          <mxGeometry relative="1" as="geometry">
            <Array as="points">
              <mxPoint x="690" y="420" />
              <mxPoint x="880" y="420" />
            </Array>
          </mxGeometry>
        </mxCell>
        <mxCell id="Du2Xm257BWrJ-h_zjdQK-27" value="&lt;b&gt;Foros&lt;/b&gt;" style="rounded=0;whiteSpace=wrap;html=1;fillColor=#ffe6cc;strokeColor=#d79b00;" vertex="1" parent="1">
          <mxGeometry x="630" y="310" width="120" height="60" as="geometry" />
        </mxCell>
        <mxCell id="Du2Xm257BWrJ-h_zjdQK-31" style="edgeStyle=orthogonalEdgeStyle;rounded=0;orthogonalLoop=1;jettySize=auto;html=1;exitX=1;exitY=0.5;exitDx=0;exitDy=0;entryX=0;entryY=0.5;entryDx=0;entryDy=0;" edge="1" parent="1" source="Du2Xm257BWrJ-h_zjdQK-33" target="Du2Xm257BWrJ-h_zjdQK-15">
          <mxGeometry relative="1" as="geometry" />
        </mxCell>
        <mxCell id="Du2Xm257BWrJ-h_zjdQK-32" style="edgeStyle=orthogonalEdgeStyle;rounded=0;orthogonalLoop=1;jettySize=auto;html=1;exitX=0.5;exitY=0;exitDx=0;exitDy=0;" edge="1" parent="1" source="Du2Xm257BWrJ-h_zjdQK-33" target="Du2Xm257BWrJ-h_zjdQK-65">
          <mxGeometry relative="1" as="geometry">
            <Array as="points">
              <mxPoint x="440" y="110" />
            </Array>
          </mxGeometry>
        </mxCell>
        <mxCell id="Du2Xm257BWrJ-h_zjdQK-33" value="&lt;b&gt;Login&lt;/b&gt;" style="rounded=0;whiteSpace=wrap;html=1;fillColor=#f8cecc;strokeColor=#b85450;" vertex="1" parent="1">
          <mxGeometry x="354" y="110" width="120" height="60" as="geometry" />
        </mxCell>
        <mxCell id="Du2Xm257BWrJ-h_zjdQK-36" value="&lt;b&gt;Realizar test&lt;/b&gt;" style="rounded=0;whiteSpace=wrap;html=1;fillColor=#ffe6cc;strokeColor=#d79b00;" vertex="1" parent="1">
          <mxGeometry x="70" y="310" width="120" height="60" as="geometry" />
        </mxCell>
        <mxCell id="Du2Xm257BWrJ-h_zjdQK-37" value="&lt;b&gt;Barra superior&lt;/b&gt;" style="text;html=1;strokeColor=none;fillColor=none;align=center;verticalAlign=middle;whiteSpace=wrap;rounded=0;" vertex="1" parent="1">
          <mxGeometry x="-250" y="240" width="60" height="30" as="geometry" />
        </mxCell>
        <mxCell id="Du2Xm257BWrJ-h_zjdQK-38" style="edgeStyle=orthogonalEdgeStyle;rounded=0;orthogonalLoop=1;jettySize=auto;html=1;exitX=0.5;exitY=1;exitDx=0;exitDy=0;" edge="1" parent="1" source="Du2Xm257BWrJ-h_zjdQK-40" target="Du2Xm257BWrJ-h_zjdQK-44">
          <mxGeometry relative="1" as="geometry" />
        </mxCell>
        <mxCell id="Du2Xm257BWrJ-h_zjdQK-39" style="edgeStyle=orthogonalEdgeStyle;rounded=0;orthogonalLoop=1;jettySize=auto;html=1;exitX=0.5;exitY=1;exitDx=0;exitDy=0;" edge="1" parent="1" source="Du2Xm257BWrJ-h_zjdQK-40" target="Du2Xm257BWrJ-h_zjdQK-45">
          <mxGeometry relative="1" as="geometry" />
        </mxCell>
        <mxCell id="Du2Xm257BWrJ-h_zjdQK-40" value="Ver mis PC" style="rounded=0;whiteSpace=wrap;html=1;fillColor=#fff2cc;strokeColor=#d6b656;" vertex="1" parent="1">
          <mxGeometry x="-326" y="494" width="120" height="60" as="geometry" />
        </mxCell>
        <mxCell id="Du2Xm257BWrJ-h_zjdQK-41" style="edgeStyle=orthogonalEdgeStyle;rounded=0;orthogonalLoop=1;jettySize=auto;html=1;exitX=0.5;exitY=1;exitDx=0;exitDy=0;" edge="1" parent="1" source="Du2Xm257BWrJ-h_zjdQK-43" target="Du2Xm257BWrJ-h_zjdQK-46">
          <mxGeometry relative="1" as="geometry">
            <mxPoint x="-49.99999999999977" y="624" as="targetPoint" />
            <Array as="points">
              <mxPoint x="-10" y="590" />
              <mxPoint x="-70" y="590" />
            </Array>
          </mxGeometry>
        </mxCell>
        <mxCell id="Du2Xm257BWrJ-h_zjdQK-42" style="edgeStyle=orthogonalEdgeStyle;rounded=0;orthogonalLoop=1;jettySize=auto;html=1;exitX=0.5;exitY=1;exitDx=0;exitDy=0;entryX=0.5;entryY=0;entryDx=0;entryDy=0;" edge="1" parent="1" source="Du2Xm257BWrJ-h_zjdQK-43" target="Du2Xm257BWrJ-h_zjdQK-47">
          <mxGeometry relative="1" as="geometry">
            <Array as="points">
              <mxPoint x="-10" y="590" />
              <mxPoint x="80" y="590" />
            </Array>
          </mxGeometry>
        </mxCell>
        <mxCell id="Du2Xm257BWrJ-h_zjdQK-43" value="Crear nueva configuraciÃ³n" style="rounded=0;whiteSpace=wrap;html=1;fillColor=#fff2cc;strokeColor=#d6b656;" vertex="1" parent="1">
          <mxGeometry x="-70" y="494" width="120" height="60" as="geometry" />
        </mxCell>
        <mxCell id="Du2Xm257BWrJ-h_zjdQK-44" value="Ver detalles de componentes" style="rounded=0;whiteSpace=wrap;html=1;fillColor=#d5e8d4;strokeColor=#82b366;" vertex="1" parent="1">
          <mxGeometry x="-400" y="615" width="120" height="60" as="geometry" />
        </mxCell>
        <mxCell id="Du2Xm257BWrJ-h_zjdQK-45" value="Visualizar configuraciÃ³n en 3D" style="rounded=0;whiteSpace=wrap;html=1;fillColor=#d5e8d4;strokeColor=#82b366;" vertex="1" parent="1">
          <mxGeometry x="-266" y="615" width="120" height="60" as="geometry" />
        </mxCell>
        <mxCell id="Du2Xm257BWrJ-h_zjdQK-46" value="SelecciÃ³n de componentes" style="rounded=0;whiteSpace=wrap;html=1;fillColor=#d5e8d4;strokeColor=#82b366;" vertex="1" parent="1">
          <mxGeometry x="-130" y="615" width="120" height="60" as="geometry" />
        </mxCell>
        <mxCell id="Du2Xm257BWrJ-h_zjdQK-47" value="Visualizar configuraciÃ³n en tiempo real" style="rounded=0;whiteSpace=wrap;html=1;fillColor=#d5e8d4;strokeColor=#82b366;" vertex="1" parent="1">
          <mxGeometry x="20" y="610" width="120" height="60" as="geometry" />
        </mxCell>
        <mxCell id="Du2Xm257BWrJ-h_zjdQK-48" value="" style="rounded=0;whiteSpace=wrap;html=1;fillColor=#fff2cc;strokeColor=#d6b656;" vertex="1" parent="1">
          <mxGeometry x="257" y="494" width="120" height="60" as="geometry" />
        </mxCell>
        <mxCell id="Du2Xm257BWrJ-h_zjdQK-49" style="edgeStyle=orthogonalEdgeStyle;rounded=0;orthogonalLoop=1;jettySize=auto;html=1;" edge="1" parent="1" target="Du2Xm257BWrJ-h_zjdQK-54">
          <mxGeometry relative="1" as="geometry">
            <mxPoint x="284" y="544" as="sourcePoint" />
            <Array as="points">
              <mxPoint x="310" y="544" />
              <mxPoint x="310" y="580" />
              <mxPoint x="360" y="580" />
            </Array>
          </mxGeometry>
        </mxCell>
        <mxCell id="Du2Xm257BWrJ-h_zjdQK-50" style="edgeStyle=orthogonalEdgeStyle;rounded=0;orthogonalLoop=1;jettySize=auto;html=1;exitX=0.5;exitY=1;exitDx=0;exitDy=0;" edge="1" parent="1" source="Du2Xm257BWrJ-h_zjdQK-52" target="Du2Xm257BWrJ-h_zjdQK-55">
          <mxGeometry relative="1" as="geometry">
            <mxPoint x="284" y="544" as="sourcePoint" />
            <Array as="points">
              <mxPoint x="310" y="544" />
              <mxPoint x="310" y="580" />
              <mxPoint x="220" y="580" />
            </Array>
          </mxGeometry>
        </mxCell>
        <mxCell id="Du2Xm257BWrJ-h_zjdQK-51" style="edgeStyle=orthogonalEdgeStyle;rounded=0;orthogonalLoop=1;jettySize=auto;html=1;exitX=0.5;exitY=1;exitDx=0;exitDy=0;" edge="1" parent="1" source="Du2Xm257BWrJ-h_zjdQK-52" target="Du2Xm257BWrJ-h_zjdQK-79">
          <mxGeometry relative="1" as="geometry">
            <Array as="points">
              <mxPoint x="310" y="544" />
              <mxPoint x="310" y="580" />
              <mxPoint x="490" y="580" />
            </Array>
          </mxGeometry>
        </mxCell>
        <mxCell id="Du2Xm257BWrJ-h_zjdQK-52" value="Ver seminarios" style="rounded=0;whiteSpace=wrap;html=1;fillColor=#fff2cc;strokeColor=#d6b656;" vertex="1" parent="1">
          <mxGeometry x="244" y="484" width="120" height="60" as="geometry" />
        </mxCell>
        <mxCell id="Du2Xm257BWrJ-h_zjdQK-53" value="Publicar seminario" style="rounded=0;whiteSpace=wrap;html=1;fillColor=#fff2cc;strokeColor=#d6b656;" vertex="1" parent="1">
          <mxGeometry x="420" y="484" width="120" height="60" as="geometry" />
        </mxCell>
        <mxCell id="Du2Xm257BWrJ-h_zjdQK-54" value="Ver detalles seminario" style="rounded=0;whiteSpace=wrap;html=1;fillColor=#d5e8d4;strokeColor=#82b366;" vertex="1" parent="1">
          <mxGeometry x="300" y="610" width="120" height="60" as="geometry" />
        </mxCell>
        <mxCell id="Du2Xm257BWrJ-h_zjdQK-55" value="Inscribirse al seminario" style="rounded=0;whiteSpace=wrap;html=1;fillColor=#d5e8d4;strokeColor=#82b366;" vertex="1" parent="1">
          <mxGeometry x="160" y="610" width="120" height="60" as="geometry" />
        </mxCell>
        <mxCell id="Du2Xm257BWrJ-h_zjdQK-56" value="" style="rounded=0;whiteSpace=wrap;html=1;fillColor=#fff2cc;strokeColor=#d6b656;" vertex="1" parent="1">
          <mxGeometry x="630" y="489" width="120" height="60" as="geometry" />
        </mxCell>
        <mxCell id="Du2Xm257BWrJ-h_zjdQK-57" style="edgeStyle=orthogonalEdgeStyle;rounded=0;orthogonalLoop=1;jettySize=auto;html=1;exitX=0.5;exitY=1;exitDx=0;exitDy=0;entryX=0.5;entryY=0;entryDx=0;entryDy=0;" edge="1" parent="1" source="Du2Xm257BWrJ-h_zjdQK-59" target="Du2Xm257BWrJ-h_zjdQK-63">
          <mxGeometry relative="1" as="geometry" />
        </mxCell>
        <mxCell id="Du2Xm257BWrJ-h_zjdQK-58" style="edgeStyle=orthogonalEdgeStyle;rounded=0;orthogonalLoop=1;jettySize=auto;html=1;exitX=0.5;exitY=1;exitDx=0;exitDy=0;entryX=0.5;entryY=0;entryDx=0;entryDy=0;" edge="1" parent="1" source="Du2Xm257BWrJ-h_zjdQK-59" target="Du2Xm257BWrJ-h_zjdQK-62">
          <mxGeometry relative="1" as="geometry" />
        </mxCell>
        <mxCell id="Du2Xm257BWrJ-h_zjdQK-59" value="Ver Foros" style="rounded=0;whiteSpace=wrap;html=1;fillColor=#fff2cc;strokeColor=#d6b656;" vertex="1" parent="1">
          <mxGeometry x="617" y="479" width="120" height="60" as="geometry" />
        </mxCell>
        <mxCell id="Du2Xm257BWrJ-h_zjdQK-60" value="Publicar en foro" style="rounded=0;whiteSpace=wrap;html=1;fillColor=#fff2cc;strokeColor=#d6b656;" vertex="1" parent="1">
          <mxGeometry x="820" y="484" width="120" height="60" as="geometry" />
        </mxCell>
        <mxCell id="Du2Xm257BWrJ-h_zjdQK-61" style="edgeStyle=orthogonalEdgeStyle;rounded=0;orthogonalLoop=1;jettySize=auto;html=1;exitX=0.5;exitY=1;exitDx=0;exitDy=0;" edge="1" parent="1" source="Du2Xm257BWrJ-h_zjdQK-62" target="Du2Xm257BWrJ-h_zjdQK-66">
          <mxGeometry relative="1" as="geometry" />
        </mxCell>
        <mxCell id="Du2Xm257BWrJ-h_zjdQK-62" value="Ver hilos" style="rounded=0;whiteSpace=wrap;html=1;fillColor=#d5e8d4;strokeColor=#82b366;" vertex="1" parent="1">
          <mxGeometry x="720" y="610" width="120" height="60" as="geometry" />
        </mxCell>
        <mxCell id="Du2Xm257BWrJ-h_zjdQK-63" value="Registro en el foro" style="rounded=0;whiteSpace=wrap;html=1;fillColor=#d5e8d4;strokeColor=#82b366;" vertex="1" parent="1">
          <mxGeometry x="580" y="610" width="120" height="60" as="geometry" />
        </mxCell>
        <mxCell id="Du2Xm257BWrJ-h_zjdQK-64" style="edgeStyle=orthogonalEdgeStyle;rounded=0;orthogonalLoop=1;jettySize=auto;html=1;exitX=0.25;exitY=1;exitDx=0;exitDy=0;entryX=0.25;entryY=0;entryDx=0;entryDy=0;" edge="1" parent="1" source="Du2Xm257BWrJ-h_zjdQK-65" target="Du2Xm257BWrJ-h_zjdQK-33">
          <mxGeometry relative="1" as="geometry" />
        </mxCell>
        <mxCell id="Du2Xm257BWrJ-h_zjdQK-65" value="&lt;b&gt;Registro&lt;/b&gt;" style="rounded=0;whiteSpace=wrap;html=1;fillColor=#f8cecc;strokeColor=#b85450;" vertex="1" parent="1">
          <mxGeometry x="354" y="-50" width="120" height="60" as="geometry" />
        </mxCell>
        <mxCell id="Du2Xm257BWrJ-h_zjdQK-66" value="Contribuir en el hilo" style="rounded=0;whiteSpace=wrap;html=1;fillColor=#dae8fc;strokeColor=#6c8ebf;" vertex="1" parent="1">
          <mxGeometry x="720" y="710" width="120" height="60" as="geometry" />
        </mxCell>
        <mxCell id="Du2Xm257BWrJ-h_zjdQK-67" value="Comparar&lt;br&gt;componentes" style="rounded=0;whiteSpace=wrap;html=1;fillColor=#fff2cc;strokeColor=#d6b656;" vertex="1" parent="1">
          <mxGeometry x="-533" y="494" width="120" height="60" as="geometry" />
        </mxCell>
        <mxCell id="Du2Xm257BWrJ-h_zjdQK-68" value="Tracker de &lt;br&gt;precios" style="rounded=0;whiteSpace=wrap;html=1;fillColor=#fff2cc;strokeColor=#d6b656;" vertex="1" parent="1">
          <mxGeometry x="-710" y="494" width="120" height="60" as="geometry" />
        </mxCell>
        <mxCell id="Du2Xm257BWrJ-h_zjdQK-69" style="edgeStyle=orthogonalEdgeStyle;rounded=0;orthogonalLoop=1;jettySize=auto;html=1;exitX=0.5;exitY=1;exitDx=0;exitDy=0;" edge="1" parent="1" source="Du2Xm257BWrJ-h_zjdQK-71">
          <mxGeometry relative="1" as="geometry">
            <mxPoint x="1400" y="450" as="targetPoint" />
          </mxGeometry>
        </mxCell>
        <mxCell id="Du2Xm257BWrJ-h_zjdQK-70" style="edgeStyle=orthogonalEdgeStyle;rounded=0;orthogonalLoop=1;jettySize=auto;html=1;exitX=0.5;exitY=1;exitDx=0;exitDy=0;entryX=0.5;entryY=0;entryDx=0;entryDy=0;" edge="1" parent="1" source="Du2Xm257BWrJ-h_zjdQK-71" target="Du2Xm257BWrJ-h_zjdQK-76">
          <mxGeometry relative="1" as="geometry" />
        </mxCell>
        <mxCell id="Du2Xm257BWrJ-h_zjdQK-71" value="&lt;b&gt;Configuraciones&lt;br&gt;top&lt;br&gt;&lt;/b&gt;" style="rounded=0;whiteSpace=wrap;html=1;fillColor=#ffe6cc;strokeColor=#d79b00;" vertex="1" parent="1">
          <mxGeometry x="1440" y="320" width="120" height="60" as="geometry" />
        </mxCell>
        <mxCell id="Du2Xm257BWrJ-h_zjdQK-72" value="&lt;b&gt;&lt;br&gt;&lt;/b&gt;" style="rounded=0;whiteSpace=wrap;html=1;fillColor=#ffe6cc;strokeColor=#d79b00;" vertex="1" parent="1">
          <mxGeometry x="1720" y="331" width="120" height="60" as="geometry" />
        </mxCell>
        <mxCell id="Du2Xm257BWrJ-h_zjdQK-73" style="edgeStyle=orthogonalEdgeStyle;rounded=0;orthogonalLoop=1;jettySize=auto;html=1;exitX=0.5;exitY=1;exitDx=0;exitDy=0;entryX=0.5;entryY=0;entryDx=0;entryDy=0;" edge="1" parent="1" source="Du2Xm257BWrJ-h_zjdQK-74" target="Du2Xm257BWrJ-h_zjdQK-77">
          <mxGeometry relative="1" as="geometry" />
        </mxCell>
        <mxCell id="Du2Xm257BWrJ-h_zjdQK-74" value="&lt;b&gt;Componentes&lt;br&gt;Novedosos&lt;br&gt;&lt;/b&gt;" style="rounded=0;whiteSpace=wrap;html=1;fillColor=#ffe6cc;strokeColor=#d79b00;" vertex="1" parent="1">
          <mxGeometry x="1710" y="321" width="120" height="60" as="geometry" />
        </mxCell>
        <mxCell id="Du2Xm257BWrJ-h_zjdQK-75" value="Comprar&lt;br&gt;computador" style="rounded=0;whiteSpace=wrap;html=1;fillColor=#fff2cc;strokeColor=#d6b656;" vertex="1" parent="1">
          <mxGeometry x="1340" y="450" width="120" height="60" as="geometry" />
        </mxCell>
        <mxCell id="Du2Xm257BWrJ-h_zjdQK-76" value="AÃ±adir a favoritos" style="rounded=0;whiteSpace=wrap;html=1;fillColor=#fff2cc;strokeColor=#d6b656;" vertex="1" parent="1">
          <mxGeometry x="1530" y="450" width="120" height="60" as="geometry" />
        </mxCell>
        <mxCell id="Du2Xm257BWrJ-h_zjdQK-77" value="Comprar&lt;br&gt;componente" style="rounded=0;whiteSpace=wrap;html=1;fillColor=#fff2cc;strokeColor=#d6b656;" vertex="1" parent="1">
          <mxGeometry x="1710" y="450" width="120" height="60" as="geometry" />
        </mxCell>
        <mxCell id="Du2Xm257BWrJ-h_zjdQK-78" style="edgeStyle=orthogonalEdgeStyle;rounded=0;orthogonalLoop=1;jettySize=auto;html=1;exitX=1;exitY=0.5;exitDx=0;exitDy=0;entryX=1;entryY=0.5;entryDx=0;entryDy=0;" edge="1" parent="1" source="Du2Xm257BWrJ-h_zjdQK-79" target="Du2Xm257BWrJ-h_zjdQK-48">
          <mxGeometry relative="1" as="geometry">
            <Array as="points">
              <mxPoint x="570" y="640" />
              <mxPoint x="570" y="560" />
              <mxPoint x="400" y="560" />
              <mxPoint x="400" y="524" />
            </Array>
          </mxGeometry>
        </mxCell>
        <mxCell id="Du2Xm257BWrJ-h_zjdQK-79" value="Filtrar por complejidad" style="rounded=0;whiteSpace=wrap;html=1;fillColor=#d5e8d4;strokeColor=#82b366;" vertex="1" parent="1">
          <mxGeometry x="430" y="610" width="120" height="60" as="geometry" />
        </mxCell>
        <mxCell id="Du2Xm257BWrJ-h_zjdQK-80" style="edgeStyle=orthogonalEdgeStyle;rounded=0;orthogonalLoop=1;jettySize=auto;html=1;exitX=0.5;exitY=1;exitDx=0;exitDy=0;entryX=1;entryY=0.5;entryDx=0;entryDy=0;" edge="1" parent="1" source="Du2Xm257BWrJ-h_zjdQK-46" target="Du2Xm257BWrJ-h_zjdQK-46">
          <mxGeometry relative="1" as="geometry" />
        </mxCell>
        <mxCell id="Du2Xm257BWrJ-h_zjdQK-81" value="&lt;b&gt;Chat IA&lt;br&gt;&lt;/b&gt;" style="rounded=0;whiteSpace=wrap;html=1;fillColor=#ffe6cc;strokeColor=#d79b00;" vertex="1" parent="1">
          <mxGeometry x="1940" y="321" width="120" height="60" as="geometry" />
        </mxCell>
        <mxCell id="hNpIZuivVzNyRVayZPvU-1" style="edgeStyle=orthogonalEdgeStyle;rounded=0;orthogonalLoop=1;jettySize=auto;html=1;exitX=0.5;exitY=1;exitDx=0;exitDy=0;" edge="1" parent="1" source="hNpIZuivVzNyRVayZPvU-5" target="hNpIZuivVzNyRVayZPvU-6">
          <mxGeometry relative="1" as="geometry">
            <mxPoint x="960" y="596" as="targetPoint" />
            <mxPoint x="1160" y="536" as="sourcePoint" />
            <Array as="points">
              <mxPoint x="1220" y="550" />
              <mxPoint x="1010" y="550" />
            </Array>
          </mxGeometry>
        </mxCell>
        <mxCell id="hNpIZuivVzNyRVayZPvU-2" style="edgeStyle=orthogonalEdgeStyle;rounded=0;orthogonalLoop=1;jettySize=auto;html=1;exitX=0.5;exitY=1;exitDx=0;exitDy=0;" edge="1" parent="1" source="hNpIZuivVzNyRVayZPvU-5" target="hNpIZuivVzNyRVayZPvU-7">
          <mxGeometry relative="1" as="geometry">
            <mxPoint x="1160" y="536" as="sourcePoint" />
            <Array as="points">
              <mxPoint x="1220" y="550" />
              <mxPoint x="1160" y="550" />
            </Array>
          </mxGeometry>
        </mxCell>
        <mxCell id="hNpIZuivVzNyRVayZPvU-3" style="edgeStyle=orthogonalEdgeStyle;rounded=0;orthogonalLoop=1;jettySize=auto;html=1;exitX=0.5;exitY=1;exitDx=0;exitDy=0;entryX=0.5;entryY=0;entryDx=0;entryDy=0;" edge="1" parent="1" source="hNpIZuivVzNyRVayZPvU-5" target="hNpIZuivVzNyRVayZPvU-8">
          <mxGeometry relative="1" as="geometry">
            <mxPoint x="1160" y="536" as="sourcePoint" />
            <Array as="points">
              <mxPoint x="1220" y="550" />
              <mxPoint x="1310" y="550" />
            </Array>
          </mxGeometry>
        </mxCell>
        <mxCell id="hNpIZuivVzNyRVayZPvU-4" style="edgeStyle=orthogonalEdgeStyle;rounded=0;orthogonalLoop=1;jettySize=auto;html=1;exitX=0.5;exitY=1;exitDx=0;exitDy=0;entryX=0.5;entryY=0;entryDx=0;entryDy=0;" edge="1" parent="1" source="hNpIZuivVzNyRVayZPvU-5" target="hNpIZuivVzNyRVayZPvU-9">
          <mxGeometry relative="1" as="geometry">
            <mxPoint x="1160" y="536" as="sourcePoint" />
            <Array as="points">
              <mxPoint x="1220" y="550" />
              <mxPoint x="1470" y="550" />
            </Array>
          </mxGeometry>
        </mxCell>
        <mxCell id="hNpIZuivVzNyRVayZPvU-5" value="&lt;b&gt;Cuenta&lt;br&gt;&lt;/b&gt;" style="rounded=0;whiteSpace=wrap;html=1;fillColor=#ffe6cc;strokeColor=#d79b00;" vertex="1" parent="1">
          <mxGeometry x="1160" y="307.5" width="120" height="60" as="geometry" />
        </mxCell>
        <mxCell id="hNpIZuivVzNyRVayZPvU-6" value="Gestionar mi&lt;br&gt;cuenta" style="rounded=0;whiteSpace=wrap;html=1;fillColor=#fff2cc;strokeColor=#d6b656;" vertex="1" parent="1">
          <mxGeometry x="950" y="610" width="120" height="60" as="geometry" />
        </mxCell>
        <mxCell id="hNpIZuivVzNyRVayZPvU-7" value="Gestionar notificaciones" style="rounded=0;whiteSpace=wrap;html=1;fillColor=#fff2cc;strokeColor=#d6b656;" vertex="1" parent="1">
          <mxGeometry x="1100" y="610" width="120" height="60" as="geometry" />
        </mxCell>
        <mxCell id="hNpIZuivVzNyRVayZPvU-8" value="Ayuda" style="rounded=0;whiteSpace=wrap;html=1;fillColor=#fff2cc;strokeColor=#d6b656;" vertex="1" parent="1">
          <mxGeometry x="1250" y="610" width="120" height="60" as="geometry" />
        </mxCell>
        <mxCell id="hNpIZuivVzNyRVayZPvU-9" value="Cerrar SesiÃ³n" style="rounded=0;whiteSpace=wrap;html=1;fillColor=#fff2cc;strokeColor=#d6b656;" vertex="1" parent="1">
          <mxGeometry x="1410" y="610" width="120" height="60" as="geometry" />
        </mxCell>
      </root>
    </mxGraphModel>
  </diagram>
</mxfile>
